<mxfile host="Electron" agent="Mozilla/5.0 (Windows NT 10.0; Win64; x64) AppleWebKit/537.36 (KHTML, like Gecko) draw.io/28.0.4 Chrome/138.0.7204.97 Electron/37.2.1 Safari/537.36" version="28.0.4">
  <diagram name="Страница — 1" id="wg_j5VeoZe4-xrLKdgoi">
    <mxGraphModel dx="1869" dy="730" grid="1" gridSize="10" guides="1" tooltips="1" connect="1" arrows="1" fold="1" page="1" pageScale="1" pageWidth="827" pageHeight="1169" math="0" shadow="0">
      <root>
        <mxCell id="0" />
        <mxCell id="1" parent="0" />
        <mxCell id="w4uRAptq-dMhKGyXtVlL-28" style="edgeStyle=orthogonalEdgeStyle;rounded=0;orthogonalLoop=1;jettySize=auto;html=1;exitX=0.5;exitY=0.5;exitDx=0;exitDy=0;exitPerimeter=0;entryX=0;entryY=0.5;entryDx=0;entryDy=0;" parent="1" source="w4uRAptq-dMhKGyXtVlL-1" target="w4uRAptq-dMhKGyXtVlL-6" edge="1">
          <mxGeometry relative="1" as="geometry">
            <Array as="points">
              <mxPoint x="15" y="410" />
            </Array>
          </mxGeometry>
        </mxCell>
        <mxCell id="Gkncn8ecJRyCBocQ3VEs-23" value="Проведение платежей&lt;div&gt;и открытие текущих&lt;/div&gt;&lt;div&gt;счетов&lt;/div&gt;" style="edgeLabel;html=1;align=center;verticalAlign=middle;resizable=0;points=[];" vertex="1" connectable="0" parent="w4uRAptq-dMhKGyXtVlL-28">
          <mxGeometry x="0.1477" y="2" relative="1" as="geometry">
            <mxPoint as="offset" />
          </mxGeometry>
        </mxCell>
        <mxCell id="w4uRAptq-dMhKGyXtVlL-29" style="edgeStyle=orthogonalEdgeStyle;rounded=0;orthogonalLoop=1;jettySize=auto;html=1;exitX=0.5;exitY=0.5;exitDx=0;exitDy=0;exitPerimeter=0;entryX=0;entryY=0.5;entryDx=0;entryDy=0;" parent="1" source="w4uRAptq-dMhKGyXtVlL-1" target="w4uRAptq-dMhKGyXtVlL-12" edge="1">
          <mxGeometry relative="1" as="geometry">
            <Array as="points">
              <mxPoint x="15" y="510" />
            </Array>
          </mxGeometry>
        </mxCell>
        <mxCell id="Gkncn8ecJRyCBocQ3VEs-22" value="Просмотр&lt;div&gt;маркетинговой&lt;/div&gt;&lt;div&gt;информации&lt;/div&gt;" style="edgeLabel;html=1;align=center;verticalAlign=middle;resizable=0;points=[];" vertex="1" connectable="0" parent="w4uRAptq-dMhKGyXtVlL-29">
          <mxGeometry x="-0.411" y="-2" relative="1" as="geometry">
            <mxPoint x="70" as="offset" />
          </mxGeometry>
        </mxCell>
        <mxCell id="w4uRAptq-dMhKGyXtVlL-1" value="Клиент" style="shape=umlActor;verticalLabelPosition=bottom;verticalAlign=top;html=1;outlineConnect=0;" parent="1" vertex="1">
          <mxGeometry y="421" width="30" height="60" as="geometry" />
        </mxCell>
        <mxCell id="Gkncn8ecJRyCBocQ3VEs-8" style="edgeStyle=orthogonalEdgeStyle;rounded=0;orthogonalLoop=1;jettySize=auto;html=1;exitX=0.5;exitY=0.5;exitDx=0;exitDy=0;exitPerimeter=0;entryX=0;entryY=0.5;entryDx=0;entryDy=0;" edge="1" parent="1" source="w4uRAptq-dMhKGyXtVlL-3" target="w4uRAptq-dMhKGyXtVlL-7">
          <mxGeometry relative="1" as="geometry" />
        </mxCell>
        <mxCell id="Gkncn8ecJRyCBocQ3VEs-12" value="Обработка заявок&lt;div&gt;&amp;nbsp;на депозиты&lt;br&gt;&lt;/div&gt;" style="edgeLabel;html=1;align=center;verticalAlign=middle;resizable=0;points=[];" vertex="1" connectable="0" parent="Gkncn8ecJRyCBocQ3VEs-8">
          <mxGeometry x="-0.0608" y="-3" relative="1" as="geometry">
            <mxPoint as="offset" />
          </mxGeometry>
        </mxCell>
        <mxCell id="w4uRAptq-dMhKGyXtVlL-3" value="Менеджеры бэк-офиса,&lt;div&gt;&amp;nbsp;специализирующиеся&amp;nbsp;&lt;/div&gt;&lt;div&gt;на депозитах&lt;/div&gt;" style="shape=umlActor;verticalLabelPosition=bottom;verticalAlign=top;html=1;outlineConnect=0;" parent="1" vertex="1">
          <mxGeometry y="150" width="30" height="60" as="geometry" />
        </mxCell>
        <mxCell id="w4uRAptq-dMhKGyXtVlL-31" style="edgeStyle=orthogonalEdgeStyle;rounded=0;orthogonalLoop=1;jettySize=auto;html=1;exitX=0.5;exitY=0.5;exitDx=0;exitDy=0;exitPerimeter=0;entryX=0;entryY=0.5;entryDx=0;entryDy=0;" parent="1" source="w4uRAptq-dMhKGyXtVlL-5" target="w4uRAptq-dMhKGyXtVlL-8" edge="1">
          <mxGeometry relative="1" as="geometry" />
        </mxCell>
        <mxCell id="Gkncn8ecJRyCBocQ3VEs-10" value="Создание обращения&lt;div&gt;по депозитам&lt;/div&gt;" style="edgeLabel;html=1;align=center;verticalAlign=middle;resizable=0;points=[];" vertex="1" connectable="0" parent="w4uRAptq-dMhKGyXtVlL-31">
          <mxGeometry x="-0.01" y="-1" relative="1" as="geometry">
            <mxPoint as="offset" />
          </mxGeometry>
        </mxCell>
        <mxCell id="w4uRAptq-dMhKGyXtVlL-5" value="Сотрудник&lt;div&gt;кол-центра&lt;/div&gt;" style="shape=umlActor;verticalLabelPosition=bottom;verticalAlign=top;html=1;outlineConnect=0;" parent="1" vertex="1">
          <mxGeometry x="-2" y="600" width="30" height="60" as="geometry" />
        </mxCell>
        <mxCell id="w4uRAptq-dMhKGyXtVlL-6" value="Интернет-банк" style="rounded=0;whiteSpace=wrap;html=1;" parent="1" vertex="1">
          <mxGeometry x="173" y="380" width="120" height="60" as="geometry" />
        </mxCell>
        <mxCell id="w4uRAptq-dMhKGyXtVlL-26" style="edgeStyle=orthogonalEdgeStyle;rounded=0;orthogonalLoop=1;jettySize=auto;html=1;exitX=1;exitY=0.5;exitDx=0;exitDy=0;entryX=0;entryY=0.5;entryDx=0;entryDy=0;" parent="1" source="w4uRAptq-dMhKGyXtVlL-7" target="w4uRAptq-dMhKGyXtVlL-10" edge="1">
          <mxGeometry relative="1" as="geometry" />
        </mxCell>
        <mxCell id="Gkncn8ecJRyCBocQ3VEs-13" value="&lt;div&gt;Уведомление&lt;div&gt;по ставке&lt;/div&gt;&lt;div&gt;&amp;nbsp;депозита&lt;/div&gt;&lt;/div&gt;" style="edgeLabel;html=1;align=center;verticalAlign=middle;resizable=0;points=[];" vertex="1" connectable="0" parent="w4uRAptq-dMhKGyXtVlL-26">
          <mxGeometry x="-0.042" y="-5" relative="1" as="geometry">
            <mxPoint as="offset" />
          </mxGeometry>
        </mxCell>
        <mxCell id="w4uRAptq-dMhKGyXtVlL-7" value="АБС" style="rounded=0;whiteSpace=wrap;html=1;" parent="1" vertex="1">
          <mxGeometry x="173" y="150" width="120" height="60" as="geometry" />
        </mxCell>
        <mxCell id="w4uRAptq-dMhKGyXtVlL-8" value="Система&lt;div&gt;кол-центра&lt;/div&gt;" style="rounded=0;whiteSpace=wrap;html=1;" parent="1" vertex="1">
          <mxGeometry x="173" y="600" width="120" height="60" as="geometry" />
        </mxCell>
        <mxCell id="w4uRAptq-dMhKGyXtVlL-9" value="Система партнерского&lt;div&gt;кол-центра&lt;/div&gt;" style="rounded=0;whiteSpace=wrap;html=1;" parent="1" vertex="1">
          <mxGeometry x="172" y="750" width="120" height="60" as="geometry" />
        </mxCell>
        <mxCell id="w4uRAptq-dMhKGyXtVlL-27" style="edgeStyle=orthogonalEdgeStyle;rounded=0;orthogonalLoop=1;jettySize=auto;html=1;exitX=1;exitY=0.5;exitDx=0;exitDy=0;" parent="1" source="w4uRAptq-dMhKGyXtVlL-10" target="w4uRAptq-dMhKGyXtVlL-11" edge="1">
          <mxGeometry relative="1" as="geometry" />
        </mxCell>
        <mxCell id="Gkncn8ecJRyCBocQ3VEs-14" value="&lt;div&gt;Уведомление&lt;div&gt;по ставке&lt;/div&gt;&lt;div&gt;&amp;nbsp;депозита&lt;/div&gt;&lt;/div&gt;" style="edgeLabel;html=1;align=center;verticalAlign=middle;resizable=0;points=[];" vertex="1" connectable="0" parent="w4uRAptq-dMhKGyXtVlL-27">
          <mxGeometry x="-0.0585" y="-2" relative="1" as="geometry">
            <mxPoint as="offset" />
          </mxGeometry>
        </mxCell>
        <mxCell id="w4uRAptq-dMhKGyXtVlL-10" value="СМС-шлюз&lt;div&gt;телеком-оператора&lt;/div&gt;" style="rounded=0;whiteSpace=wrap;html=1;" parent="1" vertex="1">
          <mxGeometry x="450" y="150" width="120" height="60" as="geometry" />
        </mxCell>
        <mxCell id="w4uRAptq-dMhKGyXtVlL-11" value="Телеком-оператор" style="rounded=0;whiteSpace=wrap;html=1;" parent="1" vertex="1">
          <mxGeometry x="700" y="150" width="120" height="60" as="geometry" />
        </mxCell>
        <mxCell id="w4uRAptq-dMhKGyXtVlL-12" value="Сайт" style="rounded=0;whiteSpace=wrap;html=1;" parent="1" vertex="1">
          <mxGeometry x="173" y="480" width="120" height="60" as="geometry" />
        </mxCell>
        <mxCell id="w4uRAptq-dMhKGyXtVlL-33" style="edgeStyle=orthogonalEdgeStyle;rounded=0;orthogonalLoop=1;jettySize=auto;html=1;exitX=0.5;exitY=0.5;exitDx=0;exitDy=0;exitPerimeter=0;" parent="1" source="w4uRAptq-dMhKGyXtVlL-32" edge="1">
          <mxGeometry relative="1" as="geometry">
            <mxPoint x="170" y="780" as="targetPoint" />
          </mxGeometry>
        </mxCell>
        <mxCell id="Gkncn8ecJRyCBocQ3VEs-24" value="Работа с&lt;div&gt;&amp;nbsp;обращениями&lt;/div&gt;" style="edgeLabel;html=1;align=center;verticalAlign=middle;resizable=0;points=[];" vertex="1" connectable="0" parent="w4uRAptq-dMhKGyXtVlL-33">
          <mxGeometry x="0.1781" y="-2" relative="1" as="geometry">
            <mxPoint as="offset" />
          </mxGeometry>
        </mxCell>
        <mxCell id="w4uRAptq-dMhKGyXtVlL-32" value="Сотрудник&lt;div&gt;партнерского&lt;br&gt;&lt;div&gt;кол-центра&lt;/div&gt;&lt;/div&gt;" style="shape=umlActor;verticalLabelPosition=bottom;verticalAlign=top;html=1;outlineConnect=0;" parent="1" vertex="1">
          <mxGeometry x="-1" y="750" width="30" height="60" as="geometry" />
        </mxCell>
        <mxCell id="haNKqABW4TU-GbIZKuI7-3" style="edgeStyle=orthogonalEdgeStyle;rounded=0;orthogonalLoop=1;jettySize=auto;html=1;exitX=1;exitY=0.5;exitDx=0;exitDy=0;entryX=1;entryY=0.75;entryDx=0;entryDy=0;" parent="1" source="w4uRAptq-dMhKGyXtVlL-8" target="w4uRAptq-dMhKGyXtVlL-7" edge="1">
          <mxGeometry relative="1" as="geometry">
            <mxPoint x="340" y="615" as="sourcePoint" />
          </mxGeometry>
        </mxCell>
        <mxCell id="Gkncn8ecJRyCBocQ3VEs-11" value="Передача обращения&lt;div&gt;по депозиту&lt;/div&gt;" style="edgeLabel;html=1;align=center;verticalAlign=middle;resizable=0;points=[];" vertex="1" connectable="0" parent="haNKqABW4TU-GbIZKuI7-3">
          <mxGeometry x="-0.6878" y="-1" relative="1" as="geometry">
            <mxPoint as="offset" />
          </mxGeometry>
        </mxCell>
        <mxCell id="Gkncn8ecJRyCBocQ3VEs-7" style="edgeStyle=orthogonalEdgeStyle;rounded=0;orthogonalLoop=1;jettySize=auto;html=1;exitX=0.5;exitY=0.5;exitDx=0;exitDy=0;exitPerimeter=0;entryX=0.5;entryY=0;entryDx=0;entryDy=0;" edge="1" parent="1" source="Gkncn8ecJRyCBocQ3VEs-1" target="w4uRAptq-dMhKGyXtVlL-7">
          <mxGeometry relative="1" as="geometry" />
        </mxCell>
        <mxCell id="Gkncn8ecJRyCBocQ3VEs-20" value="Анализ кредитного риска&lt;div&gt;относительно клиента&lt;/div&gt;" style="edgeLabel;html=1;align=center;verticalAlign=middle;resizable=0;points=[];" vertex="1" connectable="0" parent="Gkncn8ecJRyCBocQ3VEs-7">
          <mxGeometry x="-0.2268" relative="1" as="geometry">
            <mxPoint as="offset" />
          </mxGeometry>
        </mxCell>
        <mxCell id="Gkncn8ecJRyCBocQ3VEs-1" value="Менеджеры бэк-офиса,&lt;div&gt;&amp;nbsp;специализирующиеся&amp;nbsp;&lt;/div&gt;&lt;div&gt;на кредитах&lt;/div&gt;" style="shape=umlActor;verticalLabelPosition=bottom;verticalAlign=top;html=1;outlineConnect=0;" vertex="1" parent="1">
          <mxGeometry y="31" width="30" height="60" as="geometry" />
        </mxCell>
        <mxCell id="Gkncn8ecJRyCBocQ3VEs-9" style="edgeStyle=orthogonalEdgeStyle;rounded=0;orthogonalLoop=1;jettySize=auto;html=1;exitX=0.5;exitY=0;exitDx=0;exitDy=0;entryX=0.5;entryY=0.5;entryDx=0;entryDy=0;entryPerimeter=0;" edge="1" parent="1" source="w4uRAptq-dMhKGyXtVlL-11" target="w4uRAptq-dMhKGyXtVlL-1">
          <mxGeometry relative="1" as="geometry">
            <Array as="points">
              <mxPoint x="760" y="20" />
              <mxPoint x="-90" y="20" />
              <mxPoint x="-90" y="450" />
            </Array>
          </mxGeometry>
        </mxCell>
        <mxCell id="Gkncn8ecJRyCBocQ3VEs-15" value="Отправка уведомления&lt;div&gt;по ставке депозита&lt;/div&gt;" style="edgeLabel;html=1;align=center;verticalAlign=middle;resizable=0;points=[];" vertex="1" connectable="0" parent="Gkncn8ecJRyCBocQ3VEs-9">
          <mxGeometry x="-0.2782" y="4" relative="1" as="geometry">
            <mxPoint as="offset" />
          </mxGeometry>
        </mxCell>
        <mxCell id="Gkncn8ecJRyCBocQ3VEs-18" value="Менеджеры фронт-офиса" style="shape=umlActor;verticalLabelPosition=bottom;verticalAlign=top;html=1;outlineConnect=0;" vertex="1" parent="1">
          <mxGeometry x="-2" y="280" width="30" height="60" as="geometry" />
        </mxCell>
        <mxCell id="Gkncn8ecJRyCBocQ3VEs-19" style="edgeStyle=orthogonalEdgeStyle;rounded=0;orthogonalLoop=1;jettySize=auto;html=1;exitX=0.5;exitY=0.5;exitDx=0;exitDy=0;exitPerimeter=0;entryX=0.142;entryY=1;entryDx=0;entryDy=0;entryPerimeter=0;" edge="1" parent="1" source="Gkncn8ecJRyCBocQ3VEs-18" target="w4uRAptq-dMhKGyXtVlL-7">
          <mxGeometry relative="1" as="geometry" />
        </mxCell>
        <mxCell id="Gkncn8ecJRyCBocQ3VEs-21" value="Создание депозитов&lt;div&gt;и загрузка документов&lt;/div&gt;&lt;div&gt;по депозитам&lt;/div&gt;" style="edgeLabel;html=1;align=center;verticalAlign=middle;resizable=0;points=[];" vertex="1" connectable="0" parent="Gkncn8ecJRyCBocQ3VEs-19">
          <mxGeometry x="-0.3487" y="-3" relative="1" as="geometry">
            <mxPoint as="offset" />
          </mxGeometry>
        </mxCell>
      </root>
    </mxGraphModel>
  </diagram>
</mxfile>
